<?xml version="1.0" standalone="no"?>
<!DOCTYPE svg PUBLIC "-//W3C//DTD SVG 20010904//EN"
 "http://www.w3.org/TR/2001/REC-SVG-20010904/DTD/svg10.dtd">
<svg version="1.0" xmlns="http://www.w3.org/2000/svg"
 width="500.000000pt" height="500.000000pt" viewBox="0 0 500.000000 500.000000"
 preserveAspectRatio="xMidYMid meet">
<metadata>
Created by potrace 1.16, written by Peter Selinger 2001-2019
</metadata>
<g transform="translate(0.000000,500.000000) scale(0.100000,-0.100000)"
fill="#000000" stroke="none">
<path d="M1485 3594 c-16 -3 -66 -12 -109 -20 -76 -15 -80 -15 -94 2 -13 17
-14 14 -9 -30 3 -36 12 -55 32 -75 15 -14 25 -21 22 -16 -3 6 29 9 89 8 51 -1
96 3 99 8 4 5 13 5 23 0 29 -16 89 -16 107 -1 15 13 22 12 54 -7 23 -13 39
-32 45 -51 l8 -31 24 28 c13 16 37 34 53 41 l30 12 -24 32 c-14 18 -23 35 -20
38 3 3 -2 11 -12 19 -11 9 -14 10 -9 2 10 -17 7 -17 -56 12 -54 25 -182 39
-253 29z"/>
<path d="M1827 3409 c-9 -5 -26 -28 -37 -50 l-21 -40 36 -142 c88 -346 176
-639 217 -720 10 -21 35 -47 54 -59 l34 -20 -24 -19 c-35 -28 -66 -98 -66
-150 0 -47 26 -139 42 -150 6 -3 9 -10 8 -15 0 -5 12 -12 27 -15 16 -3 38 -11
48 -17 18 -10 16 -11 -14 -12 -19 0 -43 7 -53 17 -14 13 -23 14 -41 6 -26 -12
-251 16 -338 41 -98 29 -36 -4 74 -39 224 -73 413 -100 702 -99 223 0 370 13
555 51 158 32 404 113 388 128 -1 1 -37 -6 -78 -17 -41 -10 -108 -25 -148 -32
l-73 -13 21 22 c11 11 20 25 20 29 0 4 11 22 24 39 57 75 56 160 -1 228 -34
40 -79 59 -140 59 -60 0 -112 -33 -148 -93 l-25 -43 -97 -18 c-54 -10 -144
-29 -200 -42 -57 -13 -109 -24 -116 -24 -7 0 -18 23 -25 52 -18 77 -71 126
-159 147 -28 7 -31 9 -13 10 14 0 45 -9 70 -21 54 -26 101 -25 280 3 160 25
262 51 378 95 153 59 220 127 265 268 42 136 26 491 -26 543 -10 10 -19 9 -42
-3 -501 -265 -750 -361 -1042 -404 -39 -5 -80 -10 -90 -10 -29 0 -50 59 -114
310 -60 237 -65 247 -112 219z m1398 -158 c13 -42 21 -259 13 -360 -6 -81 -14
-118 -34 -158 -31 -65 -105 -131 -199 -178 -38 -20 -59 -28 -45 -18 124 91
187 161 219 248 18 48 21 78 21 223 0 135 -3 172 -16 190 -17 24 -44 28 -76
11 -11 -6 -22 -9 -24 -6 -7 7 98 67 118 67 9 0 19 -9 23 -19z m-82 -133 l5
-57 -90 -46 c-49 -26 -91 -45 -92 -43 -10 11 -26 103 -19 105 4 2 49 25 98 52
50 27 91 48 92 47 1 0 4 -27 6 -58z m-226 -118 c7 -36 7 -53 -1 -58 -20 -13
-108 -52 -116 -52 -7 0 -24 70 -25 103 0 9 94 55 116 56 12 1 19 -13 26 -49z
m233 -29 l0 -49 -72 -41 c-40 -22 -76 -37 -80 -33 -3 4 -9 23 -13 42 l-6 35
83 47 c46 26 84 47 86 48 1 0 2 -22 2 -49z m-403 -47 l10 -55 -31 -13 c-60
-25 -106 -40 -109 -35 -3 2 -7 29 -11 59 l-7 55 53 22 c79 33 83 31 95 -33z
m-183 -31 c3 -16 7 -43 8 -62 3 -34 3 -34 -66 -57 -38 -13 -70 -23 -72 -21 -1
1 -5 30 -9 63 l-7 62 44 15 c93 34 95 34 102 0z m-180 -69 c12 -90 12 -89 -56
-109 -35 -10 -67 -19 -73 -19 -9 -1 -26 123 -19 133 3 3 121 39 135 40 4 1 9
-20 13 -45z m-189 -27 c4 -13 5 -45 3 -72 l-3 -49 -50 -12 c-27 -7 -50 -12
-50 -11 0 1 -11 31 -23 66 -12 35 -20 66 -17 69 5 5 102 30 122 31 7 1 15 -9
18 -22z m205 -141 c0 -19 2 -41 5 -49 4 -10 -13 -19 -66 -35 -83 -25 -91 -21
-87 43 3 38 4 40 58 56 83 26 90 25 90 -15z m703 -287 c29 -15 67 -50 67 -62
0 -6 -9 -2 -19 7 -13 12 -21 14 -26 6 -3 -6 -3 -9 2 -8 12 4 54 -40 43 -47 -4
-3 -10 1 -13 7 -2 7 -4 -3 -3 -22 1 -21 -4 -40 -14 -48 -13 -11 -13 -11 3 -6
9 3 17 1 17 -5 0 -6 -8 -11 -19 -11 -10 0 -30 -9 -45 -21 -14 -11 -31 -17 -37
-13 -8 4 -9 3 -5 -4 4 -7 1 -12 -9 -12 -9 0 -14 4 -11 9 8 12 -20 22 -41 14
-10 -3 -15 -3 -11 2 8 9 -16 35 -33 35 -9 0 -9 3 0 14 9 11 9 19 -1 36 -11 17
-11 22 2 30 8 5 11 10 6 10 -5 0 1 11 14 25 28 30 18 34 -12 5 -29 -27 -36
-16 -11 18 14 20 35 30 74 39 30 6 55 12 57 12 2 1 13 -4 25 -10z m-804 -24
c31 -15 81 -70 81 -87 0 -5 -15 3 -34 20 -36 31 -73 48 -83 38 -4 -3 1 -6 11
-6 24 0 82 -61 78 -82 -2 -10 2 -18 8 -18 6 0 9 4 5 9 -3 5 -1 12 4 15 5 4 8
-2 7 -11 -2 -9 -8 -19 -14 -21 -7 -2 -12 -21 -12 -42 0 -27 -5 -40 -17 -45
-15 -5 -16 -4 -5 6 6 7 12 17 12 22 0 5 -9 -1 -19 -14 -14 -17 -16 -26 -8 -32
7 -5 3 -7 -10 -4 -13 3 -23 1 -23 -4 0 -5 5 -9 12 -9 6 0 9 -3 6 -6 -4 -3 -16
-1 -27 6 -14 7 -21 7 -21 0 0 -5 5 -10 12 -10 6 0 8 -3 4 -7 -4 -5 -14 1 -22
11 -8 11 -14 15 -14 10 0 -6 -15 -10 -34 -10 -24 1 -32 5 -28 15 3 9 1 12 -6
7 -7 -4 -12 -2 -12 4 0 6 -5 8 -12 4 -7 -5 -9 -2 -5 8 3 9 1 20 -4 25 -17 17
-28 70 -16 82 6 6 8 11 4 11 -16 0 25 60 51 74 15 9 22 15 15 16 -21 0 -73
-35 -70 -49 1 -7 -6 -15 -15 -16 -24 -4 -23 6 4 40 48 61 134 83 197 50z m585
-149 c16 -63 104 -125 179 -126 25 0 37 -4 37 -14 0 -8 -4 -17 -8 -20 -23 -14
-334 -37 -562 -42 l-255 -5 48 26 c26 14 60 43 75 65 15 22 34 42 42 44 17 6
362 83 400 89 14 2 28 5 31 6 4 0 10 -10 13 -23z"/>
<path d="M2203 2270 c-32 -13 -55 -53 -48 -83 14 -53 67 -75 114 -46 26 16 31
25 31 58 0 31 -6 44 -26 60 -29 23 -38 24 -71 11z"/>
<path d="M802 2428 c-7 -7 -12 -18 -12 -26 0 -24 -130 -162 -151 -162 -11 0
-23 -8 -26 -17 -5 -13 17 -40 87 -105 51 -48 99 -88 105 -88 19 0 57 47 53 67
-2 13 -13 18 -36 20 -36 1 -80 26 -89 49 -3 8 5 26 17 39 22 23 25 24 41 9 10
-9 19 -28 21 -42 4 -37 22 -37 57 0 40 43 41 68 2 68 -46 0 -57 23 -29 60 l23
31 32 -35 c22 -23 33 -46 33 -65 0 -40 25 -47 56 -14 13 14 24 32 24 39 0 11
-178 184 -190 184 -4 0 -11 -5 -18 -12z"/>
<path d="M4111 2390 c-36 -33 -41 -42 -31 -55 7 -8 19 -15 26 -15 10 0 14 -15
14 -57 l0 -57 -30 34 c-16 19 -29 43 -30 52 0 32 -21 30 -65 -7 -47 -38 -60
-75 -26 -75 24 0 159 -144 163 -174 5 -36 40 -30 82 13 33 34 37 42 26 56 -7
8 -18 15 -25 15 -15 0 -50 38 -42 46 13 14 75 -7 80 -26 3 -11 14 -20 24 -20
24 0 115 91 105 106 -4 6 -36 14 -72 17 -36 4 -82 11 -104 18 l-38 11 6 51 c3
29 7 63 8 77 5 38 -22 35 -71 -10z"/>
<path d="M990 2191 c-42 -22 -95 -96 -104 -146 -10 -52 18 -102 78 -142 52
-35 105 -43 125 -19 18 22 2 46 -31 46 -39 0 -84 24 -91 49 -12 46 71 161 118
161 38 0 50 -24 35 -70 -15 -46 -3 -70 37 -70 18 0 28 9 39 36 9 20 13 47 10
59 -14 55 -94 115 -153 115 -16 0 -44 -8 -63 -19z"/>
<path d="M3862 2183 c-18 -8 -46 -31 -63 -51 -28 -32 -31 -40 -27 -87 5 -60
52 -136 98 -160 40 -21 93 -19 139 5 67 34 109 106 79 136 -20 21 -46 8 -53
-27 -11 -49 -69 -75 -106 -46 -31 24 -79 101 -79 127 0 49 45 67 77 30 35 -40
91 -15 79 35 -7 27 -52 55 -88 55 -13 0 -38 -8 -56 -17z"/>
<path d="M3458 2095 c-254 -135 -712 -223 -1173 -226 -190 -1 -173 -12 44 -29
205 -16 448 1 665 45 101 21 246 66 246 77 0 5 4 7 9 3 14 -8 180 81 225 120
47 42 45 43 -16 10z"/>
<path d="M1224 2030 c-42 -27 -87 -112 -88 -166 -1 -57 25 -92 97 -128 48 -24
63 -27 90 -19 25 7 32 14 32 33 0 23 -4 25 -47 26 -90 1 -110 50 -57 142 34
61 65 80 99 62 19 -10 21 -17 15 -61 -6 -46 -5 -49 19 -61 35 -15 56 4 63 58
4 30 0 45 -17 67 -49 62 -147 85 -206 47z"/>
<path d="M3561 1986 c-34 -35 -37 -66 -7 -66 21 0 27 -28 31 -147 2 -62 7
-109 13 -111 18 -6 92 38 92 54 0 9 -9 18 -20 21 -30 8 -24 27 15 46 46 22 45
22 45 -13 0 -38 18 -39 85 -2 58 32 69 57 30 72 -15 6 -73 48 -130 95 -57 47
-107 85 -112 85 -5 0 -24 -15 -42 -34z"/>
<path d="M1510 1923 c-57 -22 -104 -105 -104 -185 -1 -50 3 -60 29 -88 33 -35
107 -61 151 -52 46 8 73 31 101 86 47 94 31 174 -44 218 -32 19 -108 31 -133
21z m98 -69 c30 -21 28 -58 -5 -124 -35 -68 -60 -86 -91 -64 -29 20 -29 65 2
130 21 44 46 73 66 74 3 0 16 -7 28 -16z"/>
<path d="M3330 1892 c-92 -37 -95 -39 -94 -69 2 -30 1 -30 -17 -12 -42 42
-188 9 -210 -48 -15 -39 -3 -89 28 -113 19 -15 40 -20 83 -20 64 0 92 -18 73
-48 -16 -26 -60 -27 -73 -2 -8 15 -19 20 -37 18 -38 -4 -52 -32 -33 -66 13
-23 23 -27 65 -30 137 -9 225 100 146 179 -26 25 -37 29 -88 29 -58 0 -83 11
-83 37 0 7 10 18 22 24 19 10 25 8 43 -16 27 -32 64 -31 81 3 7 15 14 20 18
13 12 -19 25 -12 41 20 9 17 19 28 23 25 18 -19 71 -180 66 -202 -9 -33 15
-40 71 -19 63 25 72 38 42 67 -24 23 -94 184 -85 194 3 3 17 -1 32 -7 38 -18
52 -1 36 45 -15 46 -28 46 -150 -2z"/>
<path d="M1877 1798 c-2 -7 0 -21 5 -31 12 -23 -27 -208 -47 -223 -19 -14 -19
-40 0 -48 8 -3 37 -8 64 -12 54 -7 69 3 51 36 -26 48 23 83 54 39 23 -33 49
-20 59 30 11 54 -1 70 -39 52 -14 -6 -34 -9 -44 -6 -15 5 -16 12 -7 54 l9 49
37 -10 c20 -5 48 -23 64 -38 30 -32 53 -31 61 3 2 12 2 -23 0 -78 -5 -110 1
-134 49 -169 22 -16 43 -21 93 -21 61 0 68 2 94 32 19 22 31 47 35 80 16 125
21 147 32 150 7 3 17 -7 23 -22 14 -36 13 -181 -2 -204 -6 -10 -9 -25 -5 -33
4 -13 26 -14 129 -11 67 3 129 6 136 8 7 3 12 21 12 45 0 50 -21 62 -55 30
-15 -14 -41 -24 -69 -27 l-46 -6 0 110 c0 62 4 113 10 119 6 6 8 17 5 25 -4
11 -28 14 -113 13 -93 -1 -107 -3 -110 -18 -2 -9 1 -22 6 -29 9 -12 0 -136
-13 -178 -14 -44 -91 -44 -115 1 -15 28 -3 156 18 192 21 37 11 45 -63 51 -33
3 -113 17 -177 31 -136 30 -135 30 -141 14z"/>
<path d="M2785 1753 c-11 -2 -30 -6 -42 -9 -26 -5 -30 -31 -9 -48 20 -16 47
-205 33 -228 -23 -36 3 -41 129 -22 66 9 124 22 130 28 16 14 6 76 -13 83 -8
3 -27 -6 -42 -21 -15 -15 -44 -29 -63 -32 -40 -7 -39 -10 -58 118 -7 48 -8 84
-2 95 19 37 -3 49 -63 36z"/>
</g>
</svg>
